<svg xmlns="http://www.w3.org/2000/svg" height="1200" width="1600" version="1.1" xmlns:xlink="http://www.w3.org/1999/xlink" xmlns:svgjs="http://svgjs.com/svgjs"><rect fill="#e9f0f3" width="1600" height="1200"></rect><g><path d="M1098.81 579.6C1118.11 594.96 1137.54 590.66 1160.35 579.17 1160.35 579.17 1136.49 627.49 1160.35 633.08 1188.26 639.66 1233.81 600.56 1242.05 576.28 1250.17 552.3 1217.09 561.89 1198.46 590.91 1184.08 613.29 1170.49 651.52 1187.4 662.65 1213.16 679.56 1278.81 619.25 1287.24 557.83" stroke="#ff9e9f" stroke-width="4" stroke-linecap="round" stroke-linejoin="round" opacity="1" fill="none"></path></g><g><path d="M528.76 792.68L506.37 756.96 509.8 804.64 451.85 780.24 499.47 840.37 440.72 849.74 485.56 864.46" stroke="#61c2ff" stroke-width="4" stroke-linecap="round" stroke-linejoin="round" opacity="1" fill="none"></path></g><g><path d="M1077.88 178.52L1102.55 184.37 1081.61 198.57 1088.8 222.88 1065.99 211.88 1048.6 230.25 1046.74 204.96 1022.07 199.1 1043.01 184.82 1035.82 160.59 1058.63 171.59 1076.02 153.23 1077.88 178.52Z" fill="#61c2ff" opacity="1" stroke-width="4" stroke="none"></path></g><g><path d="M443.1 210.6H790.5C817.3 210.6 839 232.3 839 259.2V665.1C839 691.9 817.3 713.6 790.5 713.6H443.1C416.3 713.6 394.6 691.9 394.6 665.1V259.2C394.6 232.4 416.3 210.6 443.1 210.6Z" fill="#ff9e9f" opacity="1" stroke-width="4" stroke="none"></path></g><g><path d="M1169.4 304.88C1132.51 296.82 1096.16 320.13 1088.04 356.9 1083.61 376.96 1088.53 398.04 1101.34 414.1 1109.67 424.46 1112.71 438.03 1109.66 450.89L1111.35 459.14 1150.51 468.73 1158.14 462.77C1161.26 450.02 1170.14 439.37 1182.2 434.1 1216.74 418.97 1232.55 378.79 1217.44 344.15 1208.63 324.18 1190.78 309.53 1169.4 304.88Z" fill="#56ff30" opacity="1" stroke-width="4" stroke="none"></path><path d="M1109.63 450.98L1105.49 467.88C1102.21 481.27 1110.37 494.73 1123.76 498.01 1137.15 501.29 1150.61 493.13 1153.89 479.74L1158.03 462.84 1109.63 450.98Z" fill="#ff9e9f" opacity="1" stroke-width="4" stroke="none"></path><path d="M1109.66 450.89L1158.14 462.77" stroke="#7b3e3f" stroke-width="4" stroke-linecap="round" stroke-linejoin="round" opacity="1" fill="none"></path><path d="M1106.38 464.28L1154.77 476.13" stroke="#7b3e3f" stroke-width="4" stroke-linecap="round" stroke-linejoin="round" opacity="1" fill="none"></path><path d="M1125.72 454.83L1130.45 435.52C1133.62 422.59 1131.59 408.88 1124.69 397.5 1119.46 388.88 1117.96 378.62 1120.36 368.83 1122.05 361.91 1129.04 357.74 1135.88 359.42 1142.8 361.11 1146.97 368.11 1145.29 374.94L1143.53 382.14C1142.44 386.58 1145.16 391.06 1149.59 392.15 1154.03 393.23 1158.51 390.51 1159.6 386.08L1161.36 378.88C1163.06 371.95 1170.05 367.79 1176.88 369.46L1177.07 369.51C1183.99 371.2 1188.16 378.19 1186.48 385.03 1184.08 394.82 1177.9 403.29 1169.27 408.52 1157.87 415.51 1149.67 426.62 1146.48 439.64L1141.86 458.88" stroke="#000000" stroke-width="4" stroke-linecap="round" stroke-linejoin="round" opacity="1" fill="none"></path></g><g><path d="M796.41 856.8L750.93 842.57V820.12H735.52L655.92 891.13 735.52 971.24H750.93V948.79L796.41 934.56V856.8Z" fill="#cdcece" opacity="1" stroke-width="4" stroke="none"></path><path d="M756.13 844.18L750.93 842.57V948.79L768.75 943.22 756.13 844.18Z" fill="#141414" opacity="0.3" stroke-width="4" stroke="none"></path><path d="M704.71 955.84H626.21V1009.39H704.71V955.84Z" fill="#ffffff" opacity="1" stroke-width="4" stroke="none"></path><path d="M683.43 955.84H604.93V1009.39H683.43V955.84Z" fill="#cdcece" opacity="1" stroke-width="4" stroke="none"></path><path d="M720.85 999.12H797.88V1049.74H720.85L673.01 1027 720.85 999.12Z" fill="#cdcece" opacity="1" stroke-width="4" stroke="none"></path><path d="M720.85 999.12H538.17V1049.74H720.85V999.12Z" fill="#56ff30" opacity="1" stroke-width="4" stroke="none"></path><path d="M735.52 820.12H552.85V971.24H735.52V820.12Z" fill="#56ff30" opacity="1" stroke-width="4" stroke="none"></path><path d="M713.51 842.13H574.85V949.24H713.51V842.13Z" fill="#ffffff" opacity="1" stroke-width="4" stroke="none"></path><path d="M709.84 1010.13H646.75V1023.33H709.84V1010.13Z" fill="#000000" opacity="1" stroke-width="4" stroke="none"></path><path d="M750.93 842.57V948.79" stroke="#141414" stroke-width="4" stroke-linecap="round" stroke-linejoin="round" opacity="1" fill="none"></path><path d="M594.66 863.4H644.55" stroke="#56ff30" stroke-width="4" stroke-linecap="round" stroke-linejoin="round" opacity="1" fill="none"></path><path d="M594.66 878.07H618.14" stroke="#56ff30" stroke-width="4" stroke-linecap="round" stroke-linejoin="round" opacity="1" fill="none"></path><path d="M594.66 900.08H631.34" stroke="#56ff30" stroke-width="4" stroke-linecap="round" stroke-linejoin="round" opacity="1" fill="none"></path></g><g><path d="M462.71 323.37H777.71C781.01 323.37 783.71 326.07 783.71 329.37 783.71 332.67 781.01 335.37 777.71 335.37H462.71C459.41 335.37 456.71 332.67 456.71 329.37 456.71 326.07 459.41 323.37 462.71 323.37Z" fill="#ffffff" opacity="1" stroke-width="4" stroke="none"></path><path d="M702.01 356.67C717.2 356.67 729.51 344.36 729.51 329.17 729.51 313.98 717.2 301.67 702.01 301.67 686.82 301.67 674.51 313.98 674.51 329.17 674.51 344.36 686.82 356.67 702.01 356.67Z" fill="#231f20" opacity="1" stroke-width="4" stroke="none"></path><path d="M462.31 447.87H777.31C780.61 447.87 783.31 450.57 783.31 453.87 783.31 457.17 780.61 459.87 777.31 459.87H462.31C459.01 459.87 456.31 457.17 456.31 453.87 456.31 450.57 459.01 447.87 462.31 447.87Z" fill="#ffffff" opacity="1" stroke-width="4" stroke="none"></path><path d="M612.91 491.47C628.1 491.47 640.41 479.16 640.41 463.97 640.41 448.78 628.1 436.47 612.91 436.47 597.72 436.47 585.41 448.78 585.41 463.97 585.41 479.16 597.72 491.47 612.91 491.47Z" fill="#1d4215" opacity="0.2" stroke-width="4" stroke="none"></path><path d="M612.91 481.67C628.1 481.67 640.41 469.36 640.41 454.17 640.41 438.98 628.1 426.67 612.91 426.67 597.72 426.67 585.41 438.98 585.41 454.17 585.41 469.36 597.72 481.67 612.91 481.67Z" fill="#56ff30" opacity="1" stroke-width="4" stroke="none"></path></g><g><path d="M493.35 653.13C516.11 653.13 534.55 634.69 534.55 611.93 534.55 589.18 516.11 570.73 493.35 570.73 470.59 570.73 452.15 589.18 452.15 611.93 452.15 634.69 470.59 653.13 493.35 653.13Z" fill="#ffffff" opacity="1" stroke-width="4" stroke="none"></path><path d="M482.04 595.44H504.67" stroke="#231f20" stroke-width="4" stroke-linecap="round" stroke-linejoin="round" opacity="1" fill="none"></path><path d="M482.04 628.42H504.67" stroke="#231f20" stroke-width="4" stroke-linecap="round" stroke-linejoin="round" opacity="1" fill="none"></path><path d="M485.08 611.93H501.62" stroke="#231f20" stroke-width="4" stroke-linecap="round" stroke-linejoin="round" opacity="1" fill="none"></path></g><g><path d="M620.81 653.15C643.56 653.15 662.01 634.7 662.01 611.95 662.01 589.19 643.56 570.75 620.81 570.75 598.05 570.75 579.61 589.19 579.61 611.95 579.61 634.7 598.05 653.15 620.81 653.15Z" fill="#ffffff" opacity="1" stroke-width="4" stroke="none"></path><path d="M609.49 595.46H632.12" stroke="#231f20" stroke-width="4" stroke-linecap="round" stroke-linejoin="round" opacity="1" fill="none"></path><path d="M609.49 628.44H632.12" stroke="#231f20" stroke-width="4" stroke-linecap="round" stroke-linejoin="round" opacity="1" fill="none"></path><path d="M612.53 611.95H629.08" stroke="#231f20" stroke-width="4" stroke-linecap="round" stroke-linejoin="round" opacity="1" fill="none"></path></g><g><path d="M745.01 653.15C767.77 653.15 786.21 634.7 786.21 611.95 786.21 589.19 767.77 570.75 745.01 570.75 722.25 570.75 703.81 589.19 703.81 611.95 703.81 634.7 722.25 653.15 745.01 653.15Z" fill="#56ff30" opacity="1" stroke-width="4" stroke="none"></path><path d="M733.7 595.46H756.32" stroke="#ffffff" stroke-width="4" stroke-linecap="round" stroke-linejoin="round" opacity="1" fill="none"></path><path d="M733.7 628.44H756.32" stroke="#ffffff" stroke-width="4" stroke-linecap="round" stroke-linejoin="round" opacity="1" fill="none"></path><path d="M736.74 611.95H753.28" stroke="#ffffff" stroke-width="4" stroke-linecap="round" stroke-linejoin="round" opacity="1" fill="none"></path></g><g><path d="M266.51 482.33L426.13 423.38C426.32 423.38 426.52 423.38 426.32 423.57L371.68 584.75C371.68 584.95 371.49 584.95 371.29 584.75L350.73 538.14C350.73 537.95 350.53 537.95 350.34 538.14L313.52 575.94H313.32L276.5 540.3V540.1L313.32 502.3C313.32 502.11 313.32 502.11 313.32 501.91L266.51 482.91C266.51 482.72 266.51 482.52 266.51 482.33Z" fill="#0e212d" opacity="0.2" stroke-width="4" stroke="none"></path><path d="M266.51 441.98L426.13 383.03C426.32 383.03 426.52 383.03 426.32 383.23L371.68 544.41C371.68 544.6 371.49 544.6 371.29 544.41L350.73 497.8C350.73 497.6 350.53 497.6 350.34 497.8L313.52 535.6H313.32L276.5 499.95V499.76L313.32 461.96C313.32 461.76 313.32 461.76 313.32 461.57L266.51 442.57C266.51 442.18 266.51 441.98 266.51 441.98Z" fill="#61c2ff" opacity="1" stroke-width="4" stroke="none"></path></g><g><path d="M1098.56 946.33C1088.67 919.61 1064.37 885.74 1042.81 855.61 1039.4 850.77 1035.88 846.04 1032.59 841.31L1032.37 841.09 1132.1 817.01 1136.61 819.21C1141.01 825.37 1144.42 830.65 1147.94 836.25 1157.51 851.65 1166.08 867.59 1173.45 884.2 1177.08 892.45 1180.49 900.58 1183.79 909.27L1175.98 970.19 1098.56 946.33Z" fill="#c65a42" opacity="1" stroke-width="4" stroke="none"></path><path d="M1056.56 874.85C1051.94 868.36 1047.32 861.88 1042.81 855.5 1039.4 850.66 1037.86 848.57 1034.45 843.84L1032.48 840.98 1121.66 815.03 1121.88 815.47C1103.18 825.59 1086.36 838.89 1072.17 854.62 1061.84 866.17 1057.11 874.74 1057 874.85L1056.78 875.18 1056.56 874.85Z" fill="#222020" opacity="0.3" stroke-width="4" stroke="none"></path><path d="M905.03 366.59C901.62 367.69 897.99 368.24 894.36 368.13 884.46 368.13 876.1 364.72 872.04 359 865.33 349.88 865.22 339.21 871.38 319.86 870.72 318.98 865.99 312.93 866.87 309.08 867.42 306.88 870.72 305.23 876.54 304.46L877.09 302.59C880.17 293.36 883.03 285.22 886.44 278.51 891.28 269.05 905.36 271.47 916.35 267.29 923.61 264.43 923.17 264.1 930.87 264.21 945.71 264.21 951.54 261.47 961.33 270.26 976.94 284.34 974.74 307.87 971.99 322.28L969.47 324.15C968.15 332.61 970.67 360.1 967.27 377.04V377.26L906.02 380.67 903.82 374.07 905.03 366.59Z" fill="#c65a42" opacity="1" stroke-width="4" stroke="none"></path><path d="M905.03 366.59L913.49 363.18C913.82 363.07 914.04 362.96 914.37 362.96 915.03 362.96 915.69 363.29 916.02 363.84 916.35 364.39 916.46 365.05 916.13 365.71L910.52 378.47 903.82 374.07 905.03 366.59Z" fill="#222020" opacity="0.3" stroke-width="4" stroke="none"></path><path d="M897.99 952.38C897.66 943.91 896.67 936.87 896.23 933.79 894.14 919.06 891.61 901.02 888.31 878.92L909.42 698.58 982.33 848.79C984.2 857.15 987.06 871.66 988.16 879.25 990.91 897.18 992.34 915.21 992.56 933.35 992.56 939.51 992.67 945.78 992.45 952.16L956.82 1015.28 897.99 952.38Z" fill="#c65a42" opacity="1" stroke-width="4" stroke="none"></path><path d="M901.73 819.87L908.87 709.24C909.09 706.39 912.94 705.62 914.15 708.15L982.22 848.57C982.33 848.79 982.44 849.01 982.44 849.23 982.88 851.21 983.32 853.52 983.76 856.05 984.64 860.23 985.52 864.96 986.29 869.13 986.51 870.12 986.07 871.11 985.3 871.77L963.2 889.92C961.99 890.91 960.23 890.69 959.24 889.59L902.17 821.96C901.84 821.3 901.62 820.53 901.73 819.87Z" fill="#222020" opacity="0.3" stroke-width="4" stroke="none"></path><path d="M850.48 1032.32L849.93 1031.22C852.02 1028.25 854.33 1025.73 857.08 1023.53 858.51 1022.43 860.16 1021 862.14 1019.46 869.62 1013.52 879.84 1005.38 886.77 998.12 895.02 989.33 898.87 973.48 897.99 952.37V952.15H918.44C926.69 952.15 934.28 956.66 938.24 963.8L955.5 995.37C955.61 995.48 955.72 995.48 955.72 995.37L960.23 970.73C962.21 960.06 971.55 952.26 982.44 952.26H992.34V952.48C991.57 979.09 988.82 1005.27 983.76 1031.33 983.76 1031.33 983.76 1031.33 983.76 1031.44L982.99 1032.32H982.88 850.48Z" fill="#231f20" opacity="1" stroke-width="4" stroke="none"></path><path d="M727.65 451.27C722.92 441.81 720.5 435.21 720.06 434.22 718.74 433.89 707.2 431.03 697.19 416.41 696.64 417.51 694.55 420.81 690.81 420.81 688.17 420.81 685.31 419.27 682.13 416.08 674.54 408.49 673.55 403.1 674.1 399.91 674.43 397.6 675.75 395.73 677.73 394.63 676.3 391.11 676.19 388.04 677.4 385.4 678.28 383.42 679.93 381.77 682.02 380.78 678.39 373.3 683.78 368.24 685.09 367.14 683.12 366.15 681.36 365.16 679.6 364.17 668.93 358.57 662 354.94 662 350.1 662 347.9 663.43 345.26 670.25 345.26 677.62 345.26 689.49 348.56 702.03 354.06 715.23 359.77 727.65 367.36 738.76 376.49 748.54 384.85 760.53 396.5 775.05 411.68L774.94 413.88 730.07 452.04 727.65 451.27Z" fill="#c65a42" opacity="1" stroke-width="4" stroke="none"></path><path d="M1010.81 588.83C998.61 570.58 985.41 561.12 984.42 560.35L881.6 559.58 881.27 558.7 868.96 501.08C865.66 503.61 834.76 527.47 809.8 527.47 809.03 527.47 808.26 527.47 807.49 527.36 791.21 526.37 759.21 515.27 727.76 451.38L727.65 451.27 775.05 411.68 775.16 411.79C792.2 429.71 806.72 446.32 808.48 448.3 849.38 394.63 882.81 386.61 899.09 386.61 899.53 386.61 899.97 386.61 900.3 386.61H900.96C901.07 386.61 901.18 386.61 901.29 386.61L903.82 374.07H969.03C969.03 374.07 967.6 381.22 967.27 382.76 969.69 383.09 989.92 386.61 1003.88 402 1010.04 408.6 1031.49 417.29 1039.95 439.06 1045.12 452.04 1037.31 474.14 1040.72 486.23 1043.47 496.02 1045.56 505.26 1046.77 513.29 1052.16 547.6 1032.81 577.18 1011.03 588.72L1010.81 588.83Z" fill="#cdcece" opacity="1" stroke-width="4" stroke="none"></path><path d="M984.42 560.35L984.53 558.7 995.42 496.24C1004.32 499.43 1005.97 510.65 1007.73 522.63 1009.16 531.98 1010.59 541.55 1015.32 549.14 1024.01 563.1 1034.23 567.5 1034.23 567.5 1027.86 576.63 1019.72 584.1 1011.14 588.61 1011.14 588.61 984.64 560.46 984.42 560.35Z" fill="#141414" opacity="0.3" stroke-width="4" stroke="none"></path><path d="M1043.8 486.45C1042.15 486.45 1040.83 486.23 1040.83 486.23 1040.83 486.23 1038.41 478.43 1037.75 476.56 1031.16 458.52 1029.07 451.16 1017.52 425.86 1008.94 430.04 996.3 432.02 986.73 431.91 973.86 431.8 961.11 429.38 950.33 422.45 941.2 416.74 929.66 404.97 926.69 380.78 925.59 371.87 925.81 362.85 927.13 354.06L927.24 353.95C927.24 353.95 956.71 340.64 950.22 321.18 948.57 316.12 944.17 313.48 937.36 313.48 927.35 313.48 915.14 319.09 915.14 319.09 915.03 318.98 902.83 304.35 911.95 289.51 912.17 289.18 911.84 288.74 911.51 288.85 908.65 289.51 905.91 289.95 902.94 289.95 888.97 289.95 886.44 278.62 886.44 278.62V278.51C891.72 268.17 898.32 262.02 908.32 258.28 915.58 255.42 923.28 253.99 930.98 254.1 945.82 254.1 960.01 259.05 969.91 267.84 984.75 281.26 981.89 306.11 978.59 323.38L978.48 323.71C983.98 322.94 989.48 322.5 994.98 322.5 1014.11 322.5 1048.2 327.33 1061.73 359.55 1068.65 376.27 1070.63 401.12 1055.24 421.14 1057.88 422.02 1077.34 429.05 1080.42 444.34 1082.62 454.13 1080.09 464.35 1073.71 472.05 1066.45 480.63 1054.47 486.45 1043.8 486.45Z" fill="#30242a" opacity="1" stroke-width="4" stroke="none"></path><path d="M888.31 878.92C886.88 869.24 885.45 859.68 884.02 850.44 880.94 829.55 878.08 810.19 876.65 799.86 861.7 691.32 874.9 583.77 881.27 558.92V558.7H984.53 984.64C1022.91 591.25 1036.32 630.73 1055.9 686.15 1065.58 713.42 1074.48 730.47 1090.87 758.29 1098.01 770.39 1106.37 780.5 1114.51 790.29 1118.91 795.57 1122.98 800.52 1126.72 805.57 1130.45 810.52 1133.75 814.92 1136.72 819.21L960.12 861.77C960.01 861.77 960.01 861.77 960.01 861.66L915.8 734.32C915.8 734.21 915.58 734.21 915.58 734.32L916.13 872.21C916.13 872.32 916.13 872.32 916.02 872.32L888.31 878.92Z" fill="#61c2ff" opacity="1" stroke-width="4" stroke="none"></path><path d="M915.36 734.32L901.84 558.7" stroke="#2a4352" stroke-width="4" stroke-linecap="round" stroke-linejoin="round" opacity="1" fill="none"></path><path d="M844.21 1049.59V1049.37C844.1 1042.88 846.08 1036.61 849.82 1031.33L849.93 1031.22H983.87V1031.44C982.77 1037.49 981.23 1043.54 979.47 1049.37L844.21 1049.59Z" fill="#000000" opacity="1" stroke-width="4" stroke="none"></path><path d="M1083.06 1049.48C1080.42 1043.54 1079.65 1036.83 1081.08 1030.34L1081.74 1029.68 1203.14 976.89 1204.02 977.33C1205.34 983.38 1206.44 989.66 1207.21 995.92V996.03L1083.06 1049.48Z" fill="#000000" opacity="1" stroke-width="4" stroke="none"></path><path d="M1081.52 1030.12C1081.3 1030.23 1081.08 1030.01 1081.19 1029.79 1081.96 1026.6 1083.06 1023.42 1084.6 1020.45 1085.26 1019.13 1086.14 1017.48 1087.02 1015.72 1091.31 1007.47 1097.9 995.04 1101.75 985.26 1105.6 975.25 1104.61 962.6 1098.67 946.44 1098.67 946.33 1098.67 946.22 1098.78 946.11L1118.36 937.42C1125.62 934.23 1134.08 935.22 1140.57 939.84L1167.29 958.98C1167.51 959.09 1167.73 958.98 1167.73 958.76L1163.99 936.76C1162.23 926.43 1167.73 916.2 1177.41 912.02L1183.9 909.16 1184.01 909.38C1192.37 931.37 1199.07 954.03 1204.13 977.01 1204.13 977.12 1204.13 977.23 1204.02 977.34L1081.52 1030.12Z" fill="#231f20" opacity="1" stroke-width="4" stroke="none"></path><path d="M895.79 979.87L916.24 984.16" stroke="#000000" stroke-width="4" stroke-linecap="round" stroke-linejoin="round" opacity="1" fill="none"></path><path d="M889.96 994.06L907.44 1006.7" stroke="#000000" stroke-width="4" stroke-linecap="round" stroke-linejoin="round" opacity="1" fill="none"></path><path d="M955.83 995.26L950.55 1031.22" stroke="#000000" stroke-width="4" stroke-linecap="round" stroke-linejoin="round" opacity="1" fill="none"></path><path d="M1167.62 958.65L1175.21 989.99" stroke="#000000" stroke-width="4" stroke-linecap="round" stroke-linejoin="round" opacity="1" fill="none"></path><path d="M1104.06 971.62L1120.78 973.16" stroke="#000000" stroke-width="4" stroke-linecap="round" stroke-linejoin="round" opacity="1" fill="none"></path><path d="M1101.75 985.37L1118.8 991.86" stroke="#000000" stroke-width="4" stroke-linecap="round" stroke-linejoin="round" opacity="1" fill="none"></path><path d="M995.42 496.24L984.53 558.7H881.27" stroke="#141414" stroke-width="4" stroke-linecap="round" stroke-linejoin="round" opacity="1" fill="none"></path><path d="M1009.71 531.1L989.81 527.58" stroke="#141414" stroke-width="4" stroke-linecap="round" stroke-linejoin="round" opacity="1" fill="none"></path><path d="M808.48 448.3L797.48 462.92" stroke="#141414" stroke-width="4" stroke-linecap="round" stroke-linejoin="round" opacity="1" fill="none"></path><path d="M868.96 501.08L892.05 479.42" stroke="#141414" stroke-width="4" stroke-linecap="round" stroke-linejoin="round" opacity="1" fill="none"></path><path d="M685.09 367.13C694.11 367.79 703.46 370.1 711.71 373.84" stroke="#222020" stroke-width="4" stroke-linecap="round" stroke-linejoin="round" opacity="1" fill="none"></path><path d="M682.02 380.78C692.68 381.44 706.21 385.95 706.21 385.95" stroke="#222020" stroke-width="4" stroke-linecap="round" stroke-linejoin="round" opacity="1" fill="none"></path><path d="M677.73 394.63C683.78 393.53 697.52 397.27 699.61 399.14" stroke="#222020" stroke-width="4" stroke-linecap="round" stroke-linejoin="round" opacity="1" fill="none"></path><path d="M905.03 366.59C910.52 364.28 913.49 363.18 913.49 363.18" stroke="#222020" stroke-width="4" stroke-linecap="round" stroke-linejoin="round" opacity="1" fill="none"></path><path d="M929.44 330.96L921.74 335.36" stroke="#222020" stroke-width="4" stroke-linecap="round" stroke-linejoin="round" opacity="1" fill="none"></path><path d="M1017.52 425.86C1028.52 421.47 1029.51 416.74 1029.51 416.74" stroke="#231f21" stroke-width="4" stroke-linecap="round" stroke-linejoin="round" opacity="1" fill="none"></path><path d="M1055.24 421.14C1052.6 424.32 1049.19 427.29 1046 429.93" stroke="#231f21" stroke-width="4" stroke-linecap="round" stroke-linejoin="round" opacity="1" fill="none"></path><path d="M978.48 323.7L974.52 340.85" stroke="#231f21" stroke-width="4" stroke-linecap="round" stroke-linejoin="round" opacity="1" fill="none"></path><path d="M887.65 325.47C884.35 329.86 877.75 329.86 877.75 329.86" stroke="#222020" stroke-width="4" stroke-linecap="round" stroke-linejoin="round" opacity="1" fill="none"></path><path d="M888.2 311.17C889.72 311.17 890.95 309.94 890.95 308.42 890.95 306.9 889.72 305.67 888.2 305.67 886.68 305.67 885.45 306.9 885.45 308.42 885.45 309.94 886.68 311.17 888.2 311.17Z" fill="#231f20" opacity="1" stroke-width="4" stroke="none"></path><path d="M868.96 501.08L883.14 487.77C884.02 487.11 886.99 486.78 888.09 486.78 889.63 486.78 890.95 488.43 891.94 489.64 892.93 490.74 893.26 492.28 892.93 493.82 889.52 510.76 876.98 535.17 876.87 535.5L876.43 536.38 868.96 501.08Z" fill="#141414" opacity="0.3" stroke-width="4" stroke="none"></path></g></svg>